<?xml version="1.0" encoding="UTF-8"?>
<svg id="Layer_1" data-name="Layer 1" xmlns="http://www.w3.org/2000/svg" viewBox="0 0 692 162">
  <defs>
    <style>
      .cls-1 {
        fill: #01063c;
      }

      .cls-2 {
        fill: #30cf8c;
      }
    </style>
  </defs>
  <g>
    <path class="cls-1" d="m343.17,21.83V4.05h3v17.78h-3Z"/>
    <path class="cls-1" d="m358.26,4.05c5.33,0,9.2,3.73,9.2,8.89s-3.89,8.89-9.27,8.89h-7.21V4.05h7.29Zm-4.29,15.09h4.37c3.46,0,6.1-2.57,6.1-6.17s-2.72-6.22-6.22-6.22h-4.24v12.4Z"/>
    <path class="cls-1" d="m373.78,6.74v4.8h8.69v2.69h-8.69v4.9h10.01v2.69h-13.01V4.05h12.7v2.69h-9.71Z"/>
    <path class="cls-1" d="m390.09,17.82l-1.7,4.01h-3.12l7.85-17.78h3.07l7.77,17.78h-3.2l-1.7-4.01h-8.97Zm4.47-10.57l-3.35,7.9h6.71l-3.35-7.9Z"/>
    <path class="cls-1" d="m418.36,5.75l-1.25,2.64c-1.93-1.17-3.86-1.65-5.21-1.65-1.75,0-2.9.66-2.9,1.85,0,3.89,9.6,1.8,9.58,8.21,0,3.18-2.79,5.13-6.71,5.13-2.79,0-5.44-1.14-7.27-2.82l1.3-2.59c1.83,1.68,4.12,2.59,6.02,2.59,2.08,0,3.33-.79,3.33-2.16,0-3.96-9.6-1.75-9.6-8.08,0-3.05,2.62-4.95,6.48-4.95,2.31,0,4.57.74,6.22,1.83Z"/>
    <path class="cls-1" d="m349.68,37.74v15.09h-3v-15.09h-5.61v-2.69h14.25v2.69h-5.64Z"/>
    <path class="cls-1" d="m370.43,52.83v-7.37h-9.42v7.37h-3v-17.78h3v7.72h9.42v-7.72h3v17.78h-3Z"/>
    <path class="cls-1" d="m380.74,48.82l-1.7,4.01h-3.12l7.85-17.78h3.07l7.77,17.78h-3.2l-1.7-4.01h-8.97Zm4.47-10.57l-3.35,7.9h6.71l-3.35-7.9Z"/>
    <path class="cls-1" d="m401.85,37.74v15.09h-3v-15.09h-5.62v-2.69h14.25v2.69h-5.64Z"/>
    <path class="cls-1" d="m428.93,36.75l-1.25,2.64c-1.93-1.17-3.86-1.65-5.21-1.65-1.75,0-2.9.66-2.9,1.85,0,3.89,9.6,1.8,9.58,8.21,0,3.18-2.79,5.13-6.71,5.13-2.79,0-5.44-1.14-7.27-2.82l1.3-2.59c1.83,1.68,4.12,2.59,6.02,2.59,2.08,0,3.33-.79,3.33-2.16,0-3.96-9.6-1.75-9.6-8.08,0-3.05,2.62-4.95,6.48-4.95,2.31,0,4.57.74,6.22,1.83Z"/>
    <path class="cls-1" d="m435.78,37.74v4.8h8.69v2.69h-8.69v4.9h10.01v2.69h-13.01v-17.78h12.7v2.69h-9.71Z"/>
    <path class="cls-1" d="m457.6,47.44c-.25.03-.53.03-.81.03h-4.22v5.36h-3v-17.78h7.22c4.55,0,7.16,2.21,7.16,6.07,0,2.85-1.32,4.85-3.68,5.77l3.99,5.94h-3.4l-3.25-5.39Zm-.81-2.67c2.74,0,4.32-1.17,4.32-3.58s-1.58-3.46-4.32-3.46h-4.22v7.04h4.22Z"/>
    <path class="cls-1" d="m472.69,52.83l-7.09-17.78h3.23l5.49,14.46,5.54-14.46h3.12l-7.19,17.78h-3.1Z"/>
    <path class="cls-1" d="m488.51,37.74v4.8h8.69v2.69h-8.69v4.9h10.01v2.69h-13.01v-17.78h12.7v2.69h-9.71Z"/>
    <path class="cls-1" d="m351.56,78.34c0,3.58-2.11,5.61-5.54,5.61-2.13,0-3.91-.94-5.23-2.57l1.42-2.29c1.17,1.27,2.57,1.96,3.79,1.96,1.6,0,2.54-.99,2.54-2.82v-9.5h-6.15v-2.69h9.17v12.3Z"/>
    <path class="cls-1" d="m371.09,76.46c0,4.65-2.92,7.5-7.72,7.5s-7.75-2.85-7.75-7.5v-10.42h3v10.42c0,3,1.85,4.8,4.78,4.8s4.7-1.78,4.7-4.8v-10.42h3v10.42Z"/>
    <path class="cls-1" d="m387.58,67.75l-1.25,2.64c-1.93-1.17-3.86-1.65-5.21-1.65-1.75,0-2.9.66-2.9,1.85,0,3.89,9.6,1.8,9.58,8.21,0,3.18-2.79,5.13-6.71,5.13-2.79,0-5.44-1.14-7.27-2.82l1.3-2.59c1.83,1.68,4.12,2.59,6.02,2.59,2.08,0,3.33-.79,3.33-2.16,0-3.96-9.6-1.75-9.6-8.08,0-3.05,2.62-4.95,6.48-4.95,2.31,0,4.57.74,6.22,1.83Z"/>
    <path class="cls-1" d="m397.94,68.74v15.09h-3v-15.09h-5.62v-2.69h14.25v2.69h-5.64Z"/>
    <path class="cls-1" d="m406.27,83.83v-17.78h3v17.78h-3Z"/>
    <path class="cls-1" d="m428.7,68.71l-1.75,2.19c-1.29-1.4-3.15-2.26-4.95-2.26-3.56,0-6.35,2.74-6.35,6.25s2.79,6.27,6.35,6.27c1.78,0,3.61-.81,4.95-2.11l1.78,1.98c-1.8,1.78-4.37,2.92-6.88,2.92-5.21,0-9.25-3.94-9.25-9.04s4.09-8.94,9.35-8.94c2.52,0,5.03,1.04,6.76,2.74Z"/>
    <path class="cls-1" d="m434.89,68.74v4.8h8.69v2.69h-8.69v4.9h10.01v2.69h-13.01v-17.78h12.7v2.69h-9.71Z"/>
  </g>
  <g>
    <path class="cls-2" d="m76.96,44.02c-7.24-8.47-17.4-12.71-30.5-12.71s-23.17,4.44-32.09,13.32C5.45,53.51.99,64.39.99,77.28s4.46,23.77,13.38,32.65c8.92,8.88,19.61,13.32,32.09,13.32,13.1,0,23.26-4.24,30.5-12.71v10.27h24.14V33.74h-24.14v10.27Zm-7.39,50.94c-4.93,4.59-11.13,6.88-18.62,6.88s-13.66-2.29-18.52-6.88c-4.86-4.58-7.3-10.47-7.3-17.67s2.43-13.09,7.3-17.68c4.87-4.58,11.04-6.88,18.52-6.88s13.69,2.29,18.62,6.88c4.93,4.59,7.39,10.48,7.39,17.68s-2.46,13.09-7.39,17.67Z"/>
    <path class="cls-2" d="m190.92,44.54c-7.11-8.82-17.09-13.24-29.94-13.24s-24.14,4.35-33.12,13.06c-8.98,8.71-13.47,19.22-13.47,31.52s4.46,22.96,13.38,31.61c8.92,8.65,19.99,12.97,33.21,12.97s22.83-4.41,29.94-13.24v9.4c0,6.85-2.18,12.13-6.55,15.85-4.37,3.72-10.36,5.57-17.96,5.57-11.6,0-19.77-4.07-24.51-12.19l-20.58,10.97c4.12,6.97,10.01,12.25,17.68,15.85,7.67,3.6,16.56,5.4,26.66,5.4,13.47,0,24.98-3.54,34.52-10.62,9.54-7.08,14.32-17.36,14.32-30.82V33.74h-23.58v10.8Zm-7.39,48.5c-4.93,4.47-11.2,6.7-18.81,6.7s-13.88-2.23-18.8-6.7c-4.93-4.47-7.39-10.19-7.39-17.15s2.46-12.51,7.39-16.98c4.93-4.47,11.19-6.7,18.8-6.7s13.88,2.24,18.81,6.7c4.93,4.47,7.39,10.13,7.39,16.98s-2.46,12.69-7.39,17.15Z"/>
    <path class="cls-2" d="m614.66,31.3c-12.35,0-21.64,4.18-27.88,12.54-5.49-8.36-13.97-12.54-25.45-12.54s-20.4,3.89-26.01,11.67v-9.23h-24.14v62.93h-183.3v-62.93h-24.14v10.27c-7.24-8.47-17.4-12.71-30.5-12.71s-23.17,4.44-32.09,13.32c-8.92,8.88-13.38,19.77-13.38,32.65s4.46,23.77,13.38,32.65c8.92,8.88,19.61,13.32,32.09,13.32,13.1,0,23.26-4.24,30.5-12.71v10.27h231.58v-48.93c0-6.38,1.59-11.26,4.77-14.63,3.18-3.37,7.45-5.05,12.82-5.05,4.99,0,8.86,1.45,11.6,4.35,2.74,2.9,4.12,6.97,4.12,12.19v52.07h24.14v-48.93c0-6.38,1.53-11.26,4.58-14.63,3.06-3.37,7.33-5.05,12.82-5.05,4.99,0,8.85,1.45,11.6,4.35,2.74,2.9,4.12,6.97,4.12,12.19v52.07h24.14v-53.64c0-10.91-3.21-19.62-9.64-26.12-6.43-6.5-15-9.75-25.73-9.75Zm-318.31,63.65c-4.93,4.59-11.13,6.88-18.62,6.88s-13.66-2.29-18.52-6.88c-4.86-4.58-7.3-10.47-7.3-17.67s2.43-13.09,7.3-17.68c4.86-4.58,11.04-6.88,18.52-6.88s13.69,2.29,18.62,6.88c4.93,4.59,7.39,10.48,7.39,17.68s-2.47,13.09-7.39,17.67Z"/>
    <rect class="cls-2" x="666.87" y="33.74" width="24.14" height="87.07"/>
  </g>
</svg>