<?xml version="1.0" encoding="utf-8"?>
<!-- Generator: Adobe Illustrator 25.3.1, SVG Export Plug-In . SVG Version: 6.00 Build 0)  -->
<svg version="1.1" id="Layer_1" xmlns="http://www.w3.org/2000/svg" xmlns:xlink="http://www.w3.org/1999/xlink" x="0px" y="0px"
	 viewBox="0 0 643.79 154.15" style="enable-background:new 0 0 643.79 154.15;" xml:space="preserve">
<style type="text/css">
	.st0{fill:#FFFFFF;}
	.st1{fill:#01063C;}
	.st2{fill:#30CF8C;}
</style>
<g>
	<g>
		<path class="st0" d="M319.36,24V8.05h2.69V24H319.36z"/>
		<path class="st0" d="M332.89,8.05c4.79,0,8.25,3.35,8.25,7.98c0,4.6-3.49,7.98-8.32,7.98h-6.47V8.05H332.89z M329.04,21.59h3.92
			c3.1,0,5.47-2.3,5.47-5.54c0-3.26-2.44-5.58-5.58-5.58h-3.81V21.59z"/>
		<path class="st0" d="M346.81,10.47v4.31h7.79v2.42h-7.79v4.4h8.98V24h-11.67V8.05h11.39v2.42H346.81z"/>
		<path class="st0" d="M361.44,20.4l-1.53,3.6h-2.8l7.04-15.95h2.76L373.88,24h-2.87l-1.53-3.6H361.44z M365.45,10.92l-3.01,7.09
			h6.02L365.45,10.92z"/>
		<path class="st0" d="M386.8,9.58l-1.12,2.37c-1.73-1.05-3.46-1.48-4.67-1.48c-1.57,0-2.6,0.59-2.6,1.66
			c0,3.49,8.61,1.62,8.59,7.36c0,2.85-2.51,4.6-6.02,4.6c-2.51,0-4.88-1.03-6.52-2.53l1.16-2.32c1.64,1.5,3.69,2.32,5.4,2.32
			c1.87,0,2.99-0.71,2.99-1.94c0-3.55-8.61-1.57-8.61-7.25c0-2.73,2.35-4.44,5.81-4.44C383.29,7.94,385.32,8.6,386.8,9.58z"/>
		<path class="st0" d="M325.19,38.27v13.54h-2.69V38.27h-5.04v-2.42h12.78v2.42H325.19z"/>
		<path class="st0" d="M343.81,51.81V45.2h-8.45v6.61h-2.69V35.86h2.69v6.93h8.45v-6.93h2.69v15.95H343.81z"/>
		<path class="st0" d="M353.05,48.21l-1.53,3.6h-2.8l7.04-15.95h2.76l6.97,15.95h-2.87l-1.53-3.6H353.05z M357.07,38.73l-3.01,7.09
			h6.02L357.07,38.73z"/>
		<path class="st0" d="M371.99,38.27v13.54h-2.69V38.27h-5.04v-2.42h12.78v2.42H371.99z"/>
		<path class="st0" d="M396.27,37.38l-1.12,2.37c-1.73-1.05-3.46-1.48-4.67-1.48c-1.57,0-2.6,0.59-2.6,1.66
			c0,3.49,8.61,1.62,8.59,7.36c0,2.85-2.51,4.6-6.02,4.6c-2.51,0-4.88-1.03-6.52-2.53l1.16-2.32c1.64,1.5,3.69,2.32,5.4,2.32
			c1.87,0,2.99-0.71,2.99-1.94c0-3.55-8.61-1.57-8.61-7.25c0-2.73,2.35-4.44,5.81-4.44C392.76,35.74,394.79,36.4,396.27,37.38z"/>
		<path class="st0" d="M402.42,38.27v4.31h7.79v2.42h-7.79v4.4h8.98v2.42h-11.67V35.86h11.39v2.42H402.42z"/>
		<path class="st0" d="M421.99,46.98C421.77,47,421.52,47,421.27,47h-3.78v4.81h-2.69V35.86h6.47c4.08,0,6.43,1.98,6.43,5.45
			c0,2.55-1.19,4.35-3.3,5.17l3.58,5.33h-3.05L421.99,46.98z M421.27,44.58c2.46,0,3.87-1.05,3.87-3.21c0-2.1-1.41-3.1-3.87-3.1
			h-3.78v6.31H421.27z"/>
		<path class="st0" d="M435.53,51.81l-6.36-15.95h2.89l4.92,12.97l4.97-12.97h2.8l-6.45,15.95H435.53z"/>
		<path class="st0" d="M449.72,38.27v4.31h7.79v2.42h-7.79v4.4h8.98v2.42h-11.67V35.86h11.39v2.42H449.72z"/>
		<path class="st0" d="M326.88,74.69c0,3.21-1.89,5.04-4.97,5.04c-1.91,0-3.51-0.84-4.69-2.3l1.28-2.05c1.05,1.14,2.3,1.75,3.4,1.75
			c1.44,0,2.28-0.89,2.28-2.53v-8.52h-5.51v-2.42h8.23V74.69z"/>
		<path class="st0" d="M344.4,73.01c0,4.17-2.62,6.72-6.93,6.72s-6.95-2.55-6.95-6.72v-9.34h2.69v9.34c0,2.69,1.66,4.31,4.28,4.31
			c2.6,0,4.22-1.6,4.22-4.31v-9.34h2.69V73.01z"/>
		<path class="st0" d="M359.18,65.19l-1.12,2.37c-1.73-1.05-3.46-1.48-4.67-1.48c-1.57,0-2.6,0.59-2.6,1.66
			c0,3.49,8.61,1.62,8.59,7.36c0,2.85-2.51,4.6-6.02,4.6c-2.51,0-4.88-1.03-6.52-2.53l1.16-2.32c1.64,1.5,3.69,2.32,5.4,2.32
			c1.87,0,2.99-0.71,2.99-1.94c0-3.55-8.61-1.57-8.61-7.25c0-2.73,2.35-4.44,5.81-4.44C355.68,63.55,357.7,64.21,359.18,65.19z"/>
		<path class="st0" d="M368.48,66.08v13.54h-2.69V66.08h-5.04v-2.42h12.78v2.42H368.48z"/>
		<path class="st0" d="M375.95,79.61V63.66h2.69v15.95H375.95z"/>
		<path class="st0" d="M396.07,66.06l-1.57,1.96c-1.16-1.25-2.83-2.03-4.44-2.03c-3.19,0-5.7,2.46-5.7,5.61
			c0,3.15,2.51,5.63,5.7,5.63c1.6,0,3.24-0.73,4.44-1.89l1.6,1.78c-1.62,1.6-3.92,2.62-6.18,2.62c-4.67,0-8.29-3.53-8.29-8.11
			c0-4.53,3.67-8.02,8.39-8.02C392.26,63.59,394.52,64.53,396.07,66.06z"/>
		<path class="st0" d="M401.63,66.08v4.31h7.79v2.42h-7.79v4.4h8.98v2.42h-11.67V63.66h11.39v2.42H401.63z"/>
	</g>
	<g>
		<path class="st0" d="M80.58,43.9c-6.49-7.6-15.61-11.4-27.36-11.4c-11.19,0-20.79,3.98-28.78,11.95c-8,7.97-12,17.73-12,29.29
			c0,11.56,4,21.32,12,29.29c8,7.97,17.59,11.95,28.78,11.95c11.75,0,20.87-3.8,27.36-11.4v9.22h21.65v-78.1H80.58V43.9z
			 M73.95,89.59c-4.42,4.12-9.99,6.17-16.7,6.17S45,93.71,40.63,89.59c-4.36-4.11-6.55-9.4-6.55-15.85c0-6.46,2.18-11.74,6.55-15.85
			c4.36-4.11,9.9-6.17,16.62-6.17s12.28,2.06,16.7,6.17c4.42,4.11,6.63,9.4,6.63,15.85C80.58,80.19,78.37,85.48,73.95,89.59z"/>
		<path class="st0" d="M182.79,44.37c-6.38-7.91-15.33-11.87-26.85-11.87c-11.75,0-21.65,3.9-29.71,11.72s-12.08,17.24-12.08,28.27
			c0,11.14,4,20.59,12,28.35c8,7.76,17.93,11.64,29.79,11.64c11.52,0,20.48-3.96,26.85-11.87v8.44c0,6.14-1.96,10.88-5.87,14.21
			c-3.92,3.33-9.29,5-16.11,5c-10.41,0-17.74-3.65-21.99-10.93l-18.46,9.84c3.69,6.25,8.98,10.99,15.86,14.22
			c6.88,3.23,14.85,4.84,23.92,4.84c12.08,0,22.41-3.18,30.97-9.53c8.56-6.35,12.84-15.57,12.84-27.65V34.69h-21.15V44.37z
			 M176.16,87.87c-4.42,4.01-10.04,6.01-16.87,6.01c-6.83,0-12.45-2-16.87-6.01c-4.42-4.01-6.63-9.14-6.63-15.39
			c0-6.14,2.21-11.22,6.63-15.23c4.42-4.01,10.04-6.01,16.87-6.01c6.82,0,12.45,2.01,16.87,6.01c4.42,4.01,6.63,9.09,6.63,15.23
			C182.79,78.73,180.58,83.87,176.16,87.87z"/>
		<path class="st0" d="M562.87,32.5c-11.08,0-19.41,3.75-25.01,11.25c-4.92-7.5-12.53-11.25-22.83-11.25
			c-10.52,0-18.29,3.49-23.33,10.47v-8.28h-21.65v56.45H305.65V34.69h-21.65v9.22c-6.49-7.6-15.61-11.4-27.36-11.4
			c-11.19,0-20.79,3.98-28.78,11.95c-8,7.97-12,17.73-12,29.29c0,11.56,4,21.32,12,29.29c8,7.97,17.59,11.95,28.78,11.95
			c11.75,0,20.87-3.8,27.36-11.4v9.22h1.42h20.23h164.41h21.62h0.03V68.89c0-5.72,1.43-10.1,4.28-13.12
			c2.85-3.02,6.68-4.53,11.5-4.53c4.47,0,7.94,1.3,10.41,3.9c2.46,2.61,3.69,6.25,3.69,10.94v46.7h21.65V68.89
			c0-5.72,1.37-10.1,4.11-13.12c2.74-3.02,6.57-4.53,11.5-4.53c4.47,0,7.94,1.3,10.4,3.9c2.46,2.61,3.69,6.25,3.69,10.94v46.7h21.65
			V64.68c0-9.79-2.88-17.6-8.64-23.43C580.19,35.42,572.5,32.5,562.87,32.5z M277.37,89.59c-4.42,4.12-9.99,6.17-16.7,6.17
			c-6.71,0-12.25-2.05-16.62-6.17c-4.36-4.11-6.55-9.4-6.55-15.85c0-6.46,2.18-11.74,6.55-15.85c4.36-4.11,9.9-6.17,16.62-6.17
			c6.71,0,12.28,2.06,16.7,6.17c4.42,4.11,6.63,9.4,6.63,15.85C283.99,80.19,281.78,85.48,277.37,89.59z"/>
		<rect x="609.7" y="34.69" class="st0" width="21.65" height="78.1"/>
	</g>
</g>
</svg>
